<svg width="35" height="35" viewBox="0 0 35 35" fill="none" xmlns="http://www.w3.org/2000/svg">
<path d="M16.7271 5.60144C16.9322 5.39662 17.2102 5.28157 17.5 5.28157C17.7898 5.28157 18.0678 5.39662 18.2729 5.60144L30.9458 18.2744C31.0468 18.3788 31.1675 18.462 31.301 18.5193C31.4344 18.5766 31.578 18.6067 31.7232 18.6079C31.8684 18.609 32.0124 18.5813 32.1468 18.5262C32.2812 18.4712 32.4033 18.3899 32.506 18.2872C32.6086 18.1844 32.6898 18.0623 32.7447 17.9278C32.7996 17.7934 32.8272 17.6493 32.8259 17.5041C32.8246 17.3589 32.7943 17.2154 32.7369 17.082C32.6796 16.9486 32.5962 16.8279 32.4917 16.7271L19.8202 4.05415C19.5155 3.74945 19.1538 3.50775 18.7557 3.34285C18.3576 3.17795 17.9309 3.09308 17.5 3.09308C17.0691 3.09308 16.6424 3.17795 16.2443 3.34285C15.8462 3.50775 15.4845 3.74945 15.1798 4.05415L2.50687 16.7271C2.40246 16.828 2.31919 16.9487 2.26193 17.0822C2.20467 17.2157 2.17457 17.3592 2.17338 17.5044C2.17218 17.6497 2.19993 17.7937 2.25498 17.9281C2.31004 18.0625 2.39131 18.1845 2.49406 18.2872C2.5968 18.3898 2.71896 18.471 2.8534 18.5259C2.98784 18.5809 3.13188 18.6085 3.27711 18.6071C3.42233 18.6058 3.56584 18.5756 3.69925 18.5182C3.83267 18.4608 3.95332 18.3774 4.05416 18.2729L16.7271 5.60144Z" fill="#6CCF8D"/>
<path d="M17.5 7.92163L29.3985 19.8202C29.4423 19.8629 29.4865 19.9048 29.5313 19.9456V28.9843C29.5313 30.4937 28.3063 31.7187 26.7969 31.7187H21.875C21.5849 31.7187 21.3067 31.6035 21.1016 31.3984C20.8965 31.1932 20.7813 30.915 20.7813 30.625V24.0625C20.7813 23.7724 20.666 23.4942 20.4609 23.2891C20.2558 23.0839 19.9776 22.9687 19.6875 22.9687H15.3125C15.0224 22.9687 14.7442 23.0839 14.5391 23.2891C14.334 23.4942 14.2188 23.7724 14.2188 24.0625V30.625C14.2188 30.915 14.1035 31.1932 13.8984 31.3984C13.6933 31.6035 13.4151 31.7187 13.125 31.7187H8.20313C7.47792 31.7187 6.78242 31.4306 6.26963 30.9178C5.75684 30.405 5.46875 29.7095 5.46875 28.9843V19.9456L5.60146 19.8202L17.5 7.92163Z" fill="#6CCF8D"/>
</svg>
