<svg width="40" height="40" viewBox="0 0 40 40" fill="none" xmlns="http://www.w3.org/2000/svg">
<rect width="40" height="40" fill="#6CCF8D"/>
<path d="M12.5 33L5 20L12.5 7H27.5L35 20L27.5 33H12.5Z" fill="white"/>
<path d="M19.9399 38.1287L10.1399 21.1546L17.6085 16.8426C18.8856 16.1053 20.1789 15.6388 21.4886 15.4431C22.7982 15.2474 24.0684 15.3008 25.2992 15.6032C26.5206 15.8895 27.6402 16.4287 28.6578 17.2206C29.6916 18.0032 30.5679 19.0169 31.2865 20.2617C31.9959 21.4903 32.4356 22.756 32.6058 24.0587C32.7828 25.336 32.6946 26.5832 32.3412 27.8003C31.9784 29.0013 31.3848 30.1199 30.5606 31.1562C29.7363 32.1926 28.6856 33.0794 27.4085 33.8167L19.9399 38.1287ZM23.3156 31.8796L21.7044 31.161L24.7113 29.425C25.2447 29.117 25.6737 28.74 25.9982 28.294C26.3133 27.8318 26.5299 27.3296 26.6479 26.7873C26.7658 26.2449 26.7738 25.68 26.6716 25.0923C26.5601 24.4885 26.3363 23.8956 26.0003 23.3137C25.6643 22.7317 25.2674 22.2496 24.8096 21.8673C24.3424 21.4688 23.8445 21.1851 23.3159 21.0161C22.7872 20.8471 22.2487 20.7916 21.7002 20.8496C21.1424 20.8915 20.5967 21.0664 20.0633 21.3744L16.9837 23.1524L17.2676 21.4042L23.3156 31.8796Z" fill="#6CCF8D"/>
</svg>
