<svg width="35" height="35" viewBox="0 0 35 35" fill="none" xmlns="http://www.w3.org/2000/svg">
<path d="M20.4166 11.6666V8.74992C20.4166 7.97637 20.1093 7.2345 19.5623 6.68752C19.0154 6.14054 18.2735 5.83325 17.4999 5.83325H7.29161C6.51806 5.83325 5.77619 6.14054 5.22921 6.68752C4.68223 7.2345 4.37494 7.97637 4.37494 8.74992V26.2499C4.37494 27.0235 4.68223 27.7653 5.22921 28.3123C5.77619 28.8593 6.51806 29.1666 7.29161 29.1666H17.4999C18.2735 29.1666 19.0154 28.8593 19.5623 28.3123C20.1093 27.7653 20.4166 27.0235 20.4166 26.2499V23.3333" stroke="#6CCF8D" stroke-width="3.75" stroke-linecap="round" stroke-linejoin="round"/>
<path d="M13.125 17.5H30.625M30.625 17.5L26.25 13.125M30.625 17.5L26.25 21.875" stroke="#6CCF8D" stroke-width="3.75" stroke-linecap="round" stroke-linejoin="round"/>
</svg>
