<svg width="35" height="35" viewBox="0 0 35 35" fill="none" xmlns="http://www.w3.org/2000/svg">
<path d="M11.2584 23.9983L13.8265 23.2575L29.2892 7.60956C29.4112 7.48458 29.4791 7.31663 29.4782 7.142C29.4774 6.96737 29.4079 6.80007 29.2848 6.67623L28.3588 5.73998C28.2989 5.67849 28.2274 5.62954 28.1485 5.59598C28.0695 5.56242 27.9847 5.54493 27.8989 5.54452C27.8131 5.54411 27.728 5.5608 27.6488 5.59361C27.5695 5.62642 27.4975 5.67469 27.4371 5.7356L12.0152 21.3427L11.2584 23.9983ZM30.1919 3.88498L31.1179 4.82269C32.3954 6.11623 32.4071 8.2031 31.1413 9.48352L15.2075 25.6098L9.71835 27.1906C9.55241 27.2373 9.3789 27.2508 9.20774 27.2303C9.03658 27.2099 8.87111 27.156 8.72079 27.0716C8.57048 26.9873 8.43825 26.8741 8.33167 26.7386C8.22508 26.6032 8.14623 26.448 8.0996 26.2821C8.02808 26.0414 8.02707 25.7853 8.09669 25.5441L9.69356 19.9441L25.585 3.86019C25.8872 3.55592 26.2469 3.31486 26.6433 3.15108C27.0396 2.98729 27.4645 2.90406 27.8933 2.90623C28.3222 2.9084 28.7463 2.99594 29.1409 3.16373C29.5355 3.33152 29.8928 3.57766 30.1919 3.88498ZM13.3934 5.56644C14.1167 5.56644 14.7029 6.15998 14.7029 6.89206C14.7041 7.06512 14.6711 7.23671 14.6059 7.39701C14.5407 7.55732 14.4445 7.7032 14.3229 7.82632C14.2013 7.94943 14.0566 8.04737 13.8971 8.11452C13.7376 8.18168 13.5664 8.21673 13.3934 8.21769H8.15502C6.70835 8.21769 5.53585 9.40477 5.53585 10.8675V26.7721C5.53585 28.2362 6.70835 29.4233 8.15502 29.4233H23.87C25.3167 29.4233 26.4906 28.2362 26.4906 26.7721V21.471C26.4906 20.7389 27.0769 20.1454 27.8002 20.1454C28.5236 20.1454 29.1098 20.7389 29.1098 21.4725V26.7721C29.1098 29.7004 26.7634 32.0746 23.87 32.0746H8.15502C5.26169 32.0746 2.91669 29.7004 2.91669 26.7721V10.8675C2.91669 7.9406 5.26169 5.56644 8.15502 5.56644H13.3934Z" fill="#6CCF8D"/>
</svg>
